<?xml version="1.0" encoding="iso-8859-1"?>
<!-- Uploaded to: SVG Repo, www.svgrepo.com, Generator: SVG Repo Mixer Tools -->
<svg fill="#000000" version="1.1" id="Layer_1" xmlns="http://www.w3.org/2000/svg" xmlns:xlink="http://www.w3.org/1999/xlink" 
	 viewBox="0 0 512 512" xml:space="preserve">
<g>
	<g>
		<path d="M256,145.455c-60.955,0-110.545,49.591-110.545,110.545S195.045,366.545,256,366.545S366.545,316.955,366.545,256
			S316.955,145.455,256,145.455z M256,331.636c-41.706,0-75.636-33.93-75.636-75.636s33.93-75.636,75.636-75.636
			s75.636,33.93,75.636,75.636S297.706,331.636,256,331.636z"/>
	</g>
</g>
<g>
	<g>
		<rect x="238.545" width="34.909" height="110.545"/>
	</g>
</g>
<g>
	<g>
		<polygon points="87.323,62.639 74.981,74.981 62.639,87.323 140.806,165.49 153.147,153.148 165.49,140.806 		"/>
	</g>
</g>
<g>
	<g>
		<rect y="238.545" width="110.545" height="34.909"/>
	</g>
</g>
<g>
	<g>
		<polygon points="153.147,358.852 140.806,346.51 62.639,424.677 87.323,449.361 165.49,371.194 		"/>
	</g>
</g>
<g>
	<g>
		<rect x="238.545" y="401.455" width="34.909" height="110.545"/>
	</g>
</g>
<g>
	<g>
		<polygon points="371.194,346.51 358.853,358.852 346.51,371.194 424.677,449.361 449.361,424.677 		"/>
	</g>
</g>
<g>
	<g>
		<rect x="401.455" y="238.545" width="110.545" height="34.909"/>
	</g>
</g>
<g>
	<g>
		<polygon points="437.019,74.981 424.677,62.639 346.51,140.806 358.853,153.148 371.194,165.49 449.361,87.323 		"/>
	</g>
</g>
</svg>