<?xml version="1.0" encoding="iso-8859-1"?>
<!-- Uploaded to: SVG Repo, www.svgrepo.com, Generator: SVG Repo Mixer Tools -->
<!DOCTYPE svg PUBLIC "-//W3C//DTD SVG 1.1//EN" "http://www.w3.org/Graphics/SVG/1.1/DTD/svg11.dtd">
<svg fill="#000000" height="800px" width="800px" version="1.1" id="Capa_1" xmlns="http://www.w3.org/2000/svg" xmlns:xlink="http://www.w3.org/1999/xlink" 
	 viewBox="0 0 295 295" xml:space="preserve">
<path d="M280.333,0.5H66.667c-3.864,0-7.58,1.491-10.372,4.163C38.328,21.86,27.267,32.845,10.522,49.472l-5.922,5.715
	C1.762,58.003,0,61.835,0,65.833V279.5c0,8.284,7.049,15,15.333,15h50c8.284,0,14.667-6.716,14.667-15v-18h136v18
	c0,8.284,7.049,15,15.333,15h49c8.284,0,14.667-6.716,14.667-15v-264C295,7.216,288.617,0.5,280.333,0.5z M81,97.5H48v-34h33V97.5z
	 M131,97.5H98v-66h33V97.5z M197,97.5h-33v-66h33V97.5z M263,97.5h-33v-66h33V97.5z"/>
</svg>