<?xml version="1.0" encoding="iso-8859-1"?>
<!-- Uploaded to: SVG Repo, www.svgrepo.com, Generator: SVG Repo Mixer Tools -->
<!DOCTYPE svg PUBLIC "-//W3C//DTD SVG 1.1//EN" "http://www.w3.org/Graphics/SVG/1.1/DTD/svg11.dtd">
<svg fill="#000000" version="1.1" id="Capa_1" xmlns="http://www.w3.org/2000/svg" xmlns:xlink="http://www.w3.org/1999/xlink" 
	 width="800px" height="800px" viewBox="0 0 506.621 506.621"
	 xml:space="preserve">
<g>
	<g>
		<path d="M238.173,495.939c4.925,9.305,11.599,10.682,15.137,10.682c3.539,0,10.212-1.387,15.138-10.682
			c14.678-27.684,46.291-78.651,76.863-127.937c52.449-84.57,84.504-136.935,87.229-151.221c2.162-11.427,3.252-22.969,3.252-34.292
			C435.792,81.883,353.917,0,253.3,0C152.694,0,70.829,81.874,70.829,182.49c0,13.091,1.425,26.259,4.255,39.149
			c2.582,11.819,27.875,53.187,81.013,138.36C188.84,412.469,222.71,466.745,238.173,495.939z M85.173,182.481
			c0-92.708,75.429-168.147,168.127-168.147c92.718,0,168.148,75.438,168.148,168.147c0,10.423-1.004,21.047-2.994,31.604
			c-2.438,12.718-48.404,86.827-85.336,146.354l-0.324,0.545c-30.582,49.304-62.205,100.291-77.008,128.232
			c-1.157,2.171-2.122,2.745-2.476,2.745c-0.354,0-1.319-0.584-2.477-2.745c-15.635-29.548-49.496-83.806-82.247-136.284
			l-0.535-0.86c-34.138-54.727-76.634-122.821-78.967-133.502C86.483,206.693,85.173,194.549,85.173,182.481z"/>
		<path d="M253.292,290.565c59.592,0,108.094-48.481,108.094-108.084S312.884,74.405,253.292,74.405
			c-59.575,0-108.057,48.482-108.057,108.085C145.235,242.094,193.707,290.565,253.292,290.565z M253.292,83.968
			c54.334,0,98.532,44.208,98.532,98.522c0,54.334-44.197,98.522-98.532,98.522c-54.315,0-98.494-44.188-98.494-98.522
			C154.797,128.175,198.976,83.968,253.292,83.968z"/>
		<path d="M221.639,213.511c5.192-0.947,9.209-6.79,9.209-12.068v-10.978c0-5.279-4.284-9.562-9.562-9.562h-1.501
			c-5.279,0-9.562,1.453-9.562,3.251s2.831,3.251,6.321,3.251s6.321,4.188,6.321,9.352c0,5.164-2.286,10.318-5.298,10.691
			c-1.559,0.201-3.395,0.315-5.479,0.315c-14.679,0-24.165-9.39-24.165-25.274c0-15.711,9.945-25.178,25.188-25.178
			c2.726,0,5.049,0.201,7.086,0.564c3.863,0.688,7.21,0.65,7.774-1.176c0.564-1.826-2.295-4.781-6.675-5.527
			c-2.353-0.402-5.059-0.66-8.004-0.66c-20.999,0-33.918,13.674-33.918,32.35c0,9.754,3.347,18.121,8.74,23.323
			c6.129,5.843,13.932,8.252,23.409,8.252C215.185,214.439,218.618,214.056,221.639,213.511z"/>
		<path d="M254.458,189.175c1.034,0.067,2.133,0.096,3.27,0.096c7.891,0,14.775-2.314,19.135-6.875
			c3.166-3.251,4.84-7.717,4.84-13.388c0-5.565-2.143-10.126-5.48-13.091c-3.719-3.347-9.572-5.212-17.566-5.212
			c-2.859,0-5.441,0.105-7.784,0.287c-4.293,0.325-7.736,5.211-7.736,10.49v42.754c0,5.278,1.807,9.562,4.044,9.562
			c2.238,0,4.045-4.284,4.045-9.562v-5.958C251.226,192.98,252.66,189.05,254.458,189.175z M255.022,157.227
			c1.119-0.077,2.41-0.125,3.824-0.125c8.836,0,14.773,4.016,14.773,12.364c0,8.463-5.938,13.301-15.711,13.301
			c-1.213,0-2.342-0.038-3.375-0.124c-1.855-0.153-3.31-4.81-3.31-10.088v-5.231C251.226,162.036,252.909,157.37,255.022,157.227z"
			/>
		<path d="M298.493,206.99c-4.035-1.128-7.393-1.53-7.984,0.344c-0.594,1.874,2.17,5.374,6.646,6.455
			c2.629,0.631,5.508,1.023,8.271,1.023c14.773,0,21.83-8.443,21.83-18.121c0-9.209-5.297-14.306-15.883-18.398
			c-8.645-3.347-12.451-6.215-12.451-12.087c0-4.274,3.242-9.371,11.791-9.371c2.295,0,4.342,0.287,6.102,0.708
			c3.309,0.793,6.205,0.784,6.818-1.033c0.611-1.817-1.703-4.896-5.557-5.69c-2.066-0.421-4.438-0.688-7.086-0.688
			c-12.182,0-20.254,7.249-20.254,17.012c0,8.721,6.312,14.124,16.535,17.834c8.453,3.156,11.799,6.589,11.799,12.364
			c0,6.312-4.838,10.682-13.1,10.682C303.37,208.032,300.827,207.64,298.493,206.99z"/>
	</g>
</g>
</svg>