<?xml version="1.0" encoding="iso-8859-1"?>
<!-- Uploaded to: SVG Repo, www.svgrepo.com, Generator: SVG Repo Mixer Tools -->
<svg fill="#000000" version="1.1" id="Layer_1" xmlns="http://www.w3.org/2000/svg" xmlns:xlink="http://www.w3.org/1999/xlink" 
	 viewBox="0 0 512 512" xml:space="preserve">
<g>
	<g>
		<g>
			<path d="M335.826,271.411l-26.609,26.609l-10.366-10.366l-11.198,11.198l10.366,10.366l-26.609,26.609l176.173,176.173
				L512,447.583L335.826,271.411z M335.826,293.807l12.813,12.813h-25.627L335.826,293.807z M293.807,335.826l13.369-13.369h57.301
				l21.415,21.415h-84.039L293.807,335.826z M317.691,359.711h84.039l21.415,21.415h-84.039L317.691,359.711z M354.943,396.963
				h84.039l21.415,21.415h-84.039L354.943,396.963z M447.584,489.604l-18.136-18.136h36.271L447.584,489.604z M413.611,455.631
				l-21.415-21.415h84.039l13.369,13.369l-8.046,8.046H413.611z"/>
			
				<rect x="285.34" y="211.218" transform="matrix(-0.7071 -0.7071 0.7071 -0.7071 345.9482 580.7846)" width="15.837" height="15.053"/>
			
				<rect x="264.044" y="232.514" transform="matrix(-0.7071 -0.7071 0.7071 -0.7071 294.5354 602.0809)" width="15.837" height="15.051"/>
			
				<rect x="242.76" y="253.799" transform="matrix(-0.7071 -0.7071 0.7071 -0.7071 243.1497 623.366)" width="15.837" height="15.053"/>
			
				<rect x="221.472" y="275.091" transform="matrix(-0.7071 -0.7071 0.7071 -0.7071 191.7526 644.6619)" width="15.837" height="15.053"/>
			
				<rect x="200.186" y="296.377" transform="matrix(-0.7071 -0.7071 0.7071 -0.7071 140.3652 665.9476)" width="15.837" height="15.052"/>
			<path d="M352.346,170.852l10.366-10.366l-11.198-11.198l-10.366,10.366l-26.609-26.609L143.688,303.896l64.416,64.416
				l170.851-170.852L352.346,170.852z M208.104,345.916l-42.019-42.019l127.167-127.167l42.019,42.019L208.104,345.916z
				 M304.45,165.53l10.088-10.088l42.019,42.019l-10.088,10.088L304.45,165.53z"/>
			<path d="M202.783,213.981l10.366,10.366l11.198-11.198l-10.366-10.366l26.609-26.609L64.416,0.001L0,64.417L176.173,240.59
				L202.783,213.981z M64.416,22.398L77.23,35.211H51.603L64.416,22.398z M22.397,64.417l13.369-13.369h57.301l21.415,21.415H30.443
				L22.397,64.417z M46.281,88.3h84.039l21.415,21.415H67.697L46.281,88.3z M83.534,125.554h84.039l21.415,21.415h-84.04
				L83.534,125.554z M120.785,162.805h84.039l13.369,13.369l-8.046,8.046H142.2L120.785,162.805z M194.309,200.057l-18.136,18.136
				l-18.136-18.136H194.309z"/>
			<path d="M127.999,320.139l5.045,5.045l-10.366,10.366c-12.905,12.905-14.57,32.853-5.009,47.582l-26.922,26.922l11.198,11.198
				l26.922-26.922c6.269,4.069,13.482,6.11,20.696,6.11c9.737,0,19.474-3.706,26.886-11.119l10.366-10.366L191.86,384l11.198-11.198
				l-63.861-63.861L127.999,320.139z M175.618,367.757l-10.366,10.366c-8.65,8.649-22.725,8.649-31.376,0
				c-8.649-8.65-8.649-22.725,0-31.376l10.366-10.366L175.618,367.757z"/>
			
				<rect x="359.836" y="136.72" transform="matrix(0.7071 0.7071 -0.7071 0.7071 209.7101 -217.7933)" width="15.837" height="15.053"/>
			
				<rect x="361.138" y="120.361" transform="matrix(0.7071 0.7071 -0.7071 0.7071 203.0952 -233.7566)" width="45.157" height="15.837"/>
			
				<rect x="362.066" y="104.393" transform="matrix(0.7071 0.7071 -0.7071 0.7071 196.484 -249.7314)" width="75.258" height="15.837"/>
			
				<rect x="362.966" y="88.419" transform="matrix(0.7071 0.7071 -0.7071 0.7071 189.862 -265.6931)" width="105.369" height="15.837"/>
		</g>
	</g>
</g>
</svg>