<?xml version="1.0" encoding="iso-8859-1"?>
<!-- Uploaded to: SVG Repo, www.svgrepo.com, Generator: SVG Repo Mixer Tools -->
<!DOCTYPE svg PUBLIC "-//W3C//DTD SVG 1.1//EN" "http://www.w3.org/Graphics/SVG/1.1/DTD/svg11.dtd">
<svg fill="#000000" height="800px" width="800px" version="1.1" id="Capa_1" xmlns="http://www.w3.org/2000/svg" xmlns:xlink="http://www.w3.org/1999/xlink" 
	 viewBox="0 0 294 294" xml:space="preserve">
<path d="M279.333,0h-264C7.049,0,0,6.716,0,15v132.04c0,0.008,0,0.016,0,0.016c0,0.016,0,0.024,0,0.032V279
	c0,8.284,7.049,15,15.333,15h264c8.284,0,14.667-6.716,14.667-15V15C294,6.716,287.618,0,279.333,0z M264.204,147.064
	c0,64.479-52.457,116.936-116.936,116.936S30.333,211.543,30.333,147.064S82.79,30.129,147.269,30.129
	S264.204,82.586,264.204,147.064z M208.201,104.927c-7.307,0-14.571,1.964-21.008,5.681l-8.104,4.678l4.637-8.031
	c7.609-13.181,7.609-28.919,0-42.099c-7.61-13.181-21.239-21.049-36.458-21.049s-28.848,7.868-36.458,21.049
	c-7.609,13.18-7.609,28.918,0,42.099l4.522,7.832l-7.759-4.48c-6.437-3.717-13.701-5.681-21.008-5.681
	c-23.235,0-42.139,18.902-42.139,42.138s18.903,42.139,42.139,42.139c7.307,0,14.571-1.965,21.008-5.681l7.76-4.48l-4.522,7.833
	c-7.609,13.181-7.609,28.918,0,42.098c7.609,13.181,21.239,21.049,36.458,21.049s28.849-7.868,36.458-21.049
	c7.609-13.18,7.609-28.917,0-42.098l-4.637-8.031l8.104,4.679c6.437,3.716,13.701,5.681,21.008,5.681
	c23.236,0,42.14-18.903,42.14-42.139S231.438,104.927,208.201,104.927z M147.269,161.384c-7.896,0-14.319-6.424-14.319-14.319
	s6.424-14.318,14.319-14.318s14.319,6.423,14.319,14.318S155.164,161.384,147.269,161.384z"/>
</svg>